<svg width="60" height="60" viewBox="0 0 60 60" fill="none" xmlns="http://www.w3.org/2000/svg">
<mask id="path-1-inside-1_8_67" fill="white">
<path d="M45.267 31.3097C45.0346 31.0727 44.7588 30.8848 44.4552 30.7565C44.1516 30.6283 43.8262 30.5623 43.4976 30.5623C43.169 30.5623 42.8436 30.6283 42.54 30.7565C42.2364 30.8848 41.9605 31.0727 41.7282 31.3097L37.4448 35.6767C37.2569 35.322 36.9787 35.0256 36.6395 34.8185C36.3003 34.6114 35.9126 34.5013 35.5172 34.4998H29.2516C28.7122 33.8343 28.0424 33.2909 27.285 32.9046C26.5277 32.5184 25.6995 32.2977 24.8536 32.2568C24.0077 32.2158 23.1628 32.3555 22.373 32.6669C21.5831 32.9783 20.8658 33.4545 20.267 34.065L17.8621 36.517L17.1487 35.7897C17.0975 35.7374 17.0367 35.696 16.9697 35.6677C16.9028 35.6394 16.8311 35.6249 16.7586 35.6249C16.6862 35.6249 16.6144 35.6394 16.5475 35.6677C16.4806 35.696 16.4198 35.7374 16.3685 35.7897L14.1616 38.0397C14.1104 38.0919 14.0697 38.1539 14.042 38.2221C14.0143 38.2904 14 38.3635 14 38.4374C14 38.5113 14.0143 38.5844 14.042 38.6526C14.0697 38.7209 14.1104 38.7829 14.1616 38.8351L22.9892 47.8352C23.0404 47.8874 23.1013 47.9289 23.1682 47.9572C23.2351 47.9854 23.3069 48 23.3793 48C23.4518 48 23.5235 47.9854 23.5904 47.9572C23.6574 47.9289 23.7182 47.8874 23.7694 47.8352L25.9763 45.5852C26.0275 45.533 26.0682 45.471 26.0959 45.4027C26.1237 45.3345 26.1379 45.2613 26.1379 45.1875C26.1379 45.1136 26.1237 45.0405 26.0959 44.9722C26.0682 44.904 26.0275 44.842 25.9763 44.7898L25.2629 44.0624L25.8817 43.4315C26.1929 43.1163 26.6134 42.9388 27.052 42.9374H35.1156C35.8405 42.9395 36.5585 42.7949 37.2282 42.5121C37.8979 42.2293 38.5059 41.8138 39.017 41.2897L45.267 34.9176C45.4994 34.6807 45.6837 34.3995 45.8095 34.09C45.9353 33.7804 46 33.4487 46 33.1136C46 32.7786 45.9353 32.4468 45.8095 32.1373C45.6837 31.8278 45.4994 31.5465 45.267 31.3097ZM23.3793 46.6421L15.3319 38.4374L16.7586 36.9828L24.806 45.1875L23.3793 46.6421ZM44.4868 34.1222L38.2368 40.4943C37.8279 40.9135 37.3414 41.2459 36.8057 41.4721C36.2699 41.6984 35.6955 41.814 35.1156 41.8124H27.052C26.6896 41.8114 26.3307 41.8837 25.9959 42.0251C25.6611 42.1665 25.3571 42.3742 25.1016 42.6361L24.4828 43.267L18.6423 37.3124L21.0472 34.8605C21.5437 34.3543 22.1397 33.961 22.7959 33.7064C23.4521 33.4519 24.1538 33.3418 24.8547 33.3834C25.5557 33.4251 26.24 33.6175 26.8628 33.948C27.4856 34.2786 28.0328 34.7398 28.4682 35.3013L28.5531 35.4109C28.6047 35.4776 28.6705 35.5315 28.7455 35.5686C28.8204 35.6056 28.9027 35.6249 28.986 35.6249H35.5172C35.8099 35.6249 36.0906 35.7434 36.2975 35.9544C36.5044 36.1653 36.6207 36.4515 36.6207 36.7499C36.6207 37.0482 36.5044 37.3344 36.2975 37.5454C36.0906 37.7563 35.8099 37.8749 35.5172 37.8749H27.7931C27.6468 37.8749 27.5065 37.9341 27.403 38.0396C27.2995 38.1451 27.2414 38.2882 27.2414 38.4374C27.2414 38.5866 27.2995 38.7296 27.403 38.8351C27.5065 38.9406 27.6468 38.9999 27.7931 38.9999H35.5172C36.0569 38.9982 36.5772 38.7944 36.9793 38.4274C37.3814 38.0604 37.6373 37.5557 37.6985 37.009L42.5084 32.105C42.7749 31.8456 43.1291 31.7009 43.4976 31.7009C43.8661 31.7009 44.2203 31.8456 44.4868 32.105C44.6167 32.2375 44.7198 32.3947 44.7901 32.5678C44.8604 32.7408 44.8966 32.9263 44.8966 33.1136C44.8966 33.3009 44.8604 33.4864 44.7901 33.6594C44.7198 33.8325 44.6167 33.9897 44.4868 34.1222Z"/>
<path d="M23.2381 23.4622C23.2304 23.4732 23.2188 23.4794 23.2117 23.4912C23.2099 23.4942 23.2101 23.4977 23.2083 23.5008C21.5303 25.6737 20.6188 28.3593 20.6207 31.1248C20.6207 31.2168 20.6213 31.3083 20.6274 31.4C20.6371 31.542 20.6993 31.675 20.8013 31.7721C20.9033 31.8692 21.0377 31.9234 21.1773 31.9235C21.1902 31.9235 21.2031 31.923 21.2161 31.9221C21.2884 31.917 21.3589 31.8975 21.4238 31.8645C21.4887 31.8316 21.5465 31.786 21.5941 31.7302C21.6416 31.6745 21.6779 31.6098 21.701 31.5397C21.724 31.4697 21.7332 31.3957 21.7282 31.322C21.7236 31.2561 21.7242 31.1905 21.7242 31.1248C21.7246 28.7605 22.4606 26.4572 23.8262 24.5463C25.3865 25.585 26.2997 26.5885 26.3373 27.3361C26.2796 28.0473 26.0593 28.7347 25.694 29.3434C25.5315 29.6853 25.361 30.0451 25.2037 30.4305C25.1758 30.4987 25.1615 30.5718 25.1613 30.6457C25.1612 30.7196 25.1754 30.7927 25.203 30.861C25.2588 30.999 25.366 31.1087 25.5011 31.166C25.568 31.1944 25.6397 31.2091 25.7122 31.2092C25.7847 31.2093 25.8564 31.1949 25.9234 31.1667C26.0587 31.1099 26.1663 31.0005 26.2225 30.8628C26.3715 30.498 26.5334 30.1574 26.6873 29.8336C27.1453 29.0595 27.404 28.1799 27.4391 27.2765C27.3821 26.142 26.3937 24.9288 24.5204 23.6664C25.3651 22.6915 26.3684 21.8724 27.4862 21.2452C28.5608 23.3801 29.8538 24.5069 31.2656 24.5069C31.3683 24.5069 31.471 24.501 31.573 24.4893C32.5512 24.4258 33.4847 24.0493 34.2408 23.4134C34.7266 23.0305 34.9278 22.8723 36.0415 23.2689C37.0817 23.6382 38.1781 23.1753 39.1715 21.9741C40.0314 22.6021 40.7983 23.3528 41.4487 24.2032C40.7846 24.9264 40.262 25.7721 39.909 26.6951C39.4383 27.7426 39.1202 28.3878 38.5351 28.4438C38.155 28.4679 37.7737 28.4663 37.3939 28.4389C35.9381 28.3658 34.1275 28.2793 32.8341 30.8716C32.5408 31.4557 32.3438 32.085 32.2508 32.7343C32.2306 32.882 32.2687 33.0319 32.3568 33.151C32.4449 33.2701 32.5758 33.3486 32.7207 33.3693C32.7463 33.3731 32.7721 33.3749 32.798 33.3748C32.9309 33.3747 33.0593 33.3255 33.1595 33.2365C33.2598 33.1475 33.3251 33.0246 33.3435 32.8903C33.4185 32.3635 33.579 31.8531 33.8184 31.38C34.7872 29.4381 35.9154 29.495 37.3413 29.5625C37.7725 29.5933 38.2053 29.5939 38.6366 29.5642C39.8879 29.4439 40.4087 28.2845 40.9122 27.1634C41.1974 26.4278 41.5968 25.7438 42.0951 25.1376C42.833 26.3281 43.3431 27.6503 43.5983 29.0344C43.6116 29.107 43.6388 29.1763 43.6783 29.2383C43.7178 29.3002 43.7689 29.3536 43.8287 29.3954C43.8885 29.4372 43.9557 29.4666 44.0267 29.4819C44.0976 29.4972 44.1708 29.498 44.242 29.4845C44.3133 29.4709 44.3812 29.4432 44.4419 29.4028C44.5027 29.3624 44.555 29.3103 44.596 29.2493C44.6369 29.1883 44.6657 29.1197 44.6806 29.0474C44.6955 28.9751 44.6963 28.9005 44.6829 28.8278C44.175 26.0911 42.7756 23.6094 40.7115 21.7847C38.6474 19.9601 36.0395 18.8995 33.3104 18.7746V18.1531C33.3104 17.8381 33.3973 17.5294 33.5612 17.2623C33.7251 16.9953 33.9593 16.7805 34.2371 16.6426C34.5441 17.0073 34.9247 17.3 35.3529 17.5008C35.7812 17.7015 36.2469 17.8055 36.7182 17.8057C37.1652 17.8018 37.6082 17.7206 38.0286 17.5656C38.7323 17.3145 39.3997 16.9681 40.0129 16.5357C40.2784 16.2927 40.605 16.13 40.9561 16.0656C41.3072 16.0013 41.669 16.038 42.0008 16.1715C42.1126 16.2007 42.2305 16.1935 42.338 16.1508C42.4455 16.1081 42.5372 16.0322 42.6002 15.9336C42.6632 15.8351 42.6943 15.7189 42.6891 15.6014C42.6839 15.4838 42.6428 15.3709 42.5714 15.2785C42.4531 15.1252 39.6439 11.5374 36.9397 12.0507C34.3294 12.5467 34.0236 14.1609 33.8964 15.5607C33.4438 15.7562 33.0509 16.072 32.7587 16.475C32.4665 16.0719 32.0735 15.7561 31.6208 15.5605C31.4935 14.1608 31.1878 12.5467 28.5776 12.0507C25.8731 11.5346 23.0641 15.1255 22.9459 15.2785C22.8745 15.3709 22.8333 15.4838 22.8282 15.6013C22.823 15.7188 22.8541 15.835 22.9171 15.9336C22.98 16.0322 23.0717 16.1081 23.1792 16.1508C23.2868 16.1934 23.4047 16.2007 23.5165 16.1714C23.8483 16.0379 24.21 16.0012 24.5611 16.0655C24.9123 16.1298 25.2389 16.2926 25.5043 16.5356C26.1175 16.968 26.785 17.3145 27.4887 17.5656C27.909 17.7207 28.3521 17.8019 28.799 17.8057C29.2704 17.8055 29.7361 17.7014 30.1643 17.5007C30.5926 17.3 30.9732 17.0072 31.2802 16.6426C31.558 16.7805 31.7922 16.9952 31.9561 17.2623C32.1199 17.5294 32.2069 17.8381 32.2069 18.1531V18.764C30.4685 18.8434 28.7674 19.3043 27.2196 20.1151C25.6718 20.9259 24.3137 22.0676 23.2381 23.4622ZM37.1417 13.1565C38.3505 12.9249 39.7955 13.9953 40.7794 14.9536C40.2806 15.0593 39.8118 15.2785 39.4079 15.5949C38.8693 15.9769 38.2824 16.2826 37.6633 16.5038C37.2814 16.6736 36.8609 16.7322 36.4484 16.673C36.0358 16.6138 35.6475 16.4391 35.3265 16.1684L36.7848 15.5444C36.8518 15.5159 36.9126 15.4743 36.9638 15.4218C37.015 15.3693 37.0555 15.3071 37.083 15.2386C37.1106 15.1702 37.1246 15.0968 37.1243 15.0228C37.124 14.9488 37.1094 14.8756 37.0813 14.8074C37.0532 14.7391 37.0121 14.6772 36.9605 14.6252C36.9089 14.5732 36.8477 14.5321 36.7805 14.5042C36.7133 14.4763 36.6413 14.4622 36.5687 14.4627C36.4961 14.4633 36.4244 14.4784 36.3575 14.5073L35.0654 15.0603C35.2187 14.0981 35.6062 13.4484 37.1417 13.1565ZM27.854 16.5038C27.2348 16.2826 26.648 15.9769 26.1094 15.5949C25.7051 15.278 25.2356 15.0587 24.7363 14.9533C25.7185 13.9948 27.1592 12.9261 28.3755 13.1565C29.9111 13.4484 30.2985 14.0981 30.4518 15.0602L29.1598 14.5073C29.093 14.4787 29.0213 14.4637 28.9489 14.4634C28.8764 14.463 28.8046 14.4772 28.7375 14.5051C28.6705 14.5331 28.6095 14.5742 28.558 14.6261C28.5065 14.6781 28.4656 14.7399 28.4375 14.808C28.4095 14.8761 28.3948 14.9492 28.3945 15.023C28.3941 15.0969 28.408 15.1701 28.4354 15.2385C28.4628 15.3069 28.5032 15.3691 28.5541 15.4216C28.6051 15.474 28.6657 15.5158 28.7325 15.5444L30.191 16.1684C29.8699 16.439 29.4815 16.6135 29.069 16.6727C28.6564 16.7319 28.2359 16.6734 27.854 16.5038ZM36.4052 22.2066C34.8437 21.6512 34.267 21.9712 33.566 22.5233C32.9693 23.0313 32.2273 23.3288 31.451 23.3711C30.1438 23.5239 29.0917 21.9784 28.4728 20.7582C30.0363 20.0862 31.7308 19.7909 33.4245 19.8951C35.1181 19.9994 36.7654 20.5005 38.2382 21.3594C37.7601 21.9083 37.0857 22.449 36.4052 22.2066Z"/>
</mask>
<path d="M45.267 31.3097C45.0346 31.0727 44.7588 30.8848 44.4552 30.7565C44.1516 30.6283 43.8262 30.5623 43.4976 30.5623C43.169 30.5623 42.8436 30.6283 42.54 30.7565C42.2364 30.8848 41.9605 31.0727 41.7282 31.3097L37.4448 35.6767C37.2569 35.322 36.9787 35.0256 36.6395 34.8185C36.3003 34.6114 35.9126 34.5013 35.5172 34.4998H29.2516C28.7122 33.8343 28.0424 33.2909 27.285 32.9046C26.5277 32.5184 25.6995 32.2977 24.8536 32.2568C24.0077 32.2158 23.1628 32.3555 22.373 32.6669C21.5831 32.9783 20.8658 33.4545 20.267 34.065L17.8621 36.517L17.1487 35.7897C17.0975 35.7374 17.0367 35.696 16.9697 35.6677C16.9028 35.6394 16.8311 35.6249 16.7586 35.6249C16.6862 35.6249 16.6144 35.6394 16.5475 35.6677C16.4806 35.696 16.4198 35.7374 16.3685 35.7897L14.1616 38.0397C14.1104 38.0919 14.0697 38.1539 14.042 38.2221C14.0143 38.2904 14 38.3635 14 38.4374C14 38.5113 14.0143 38.5844 14.042 38.6526C14.0697 38.7209 14.1104 38.7829 14.1616 38.8351L22.9892 47.8352C23.0404 47.8874 23.1013 47.9289 23.1682 47.9572C23.2351 47.9854 23.3069 48 23.3793 48C23.4518 48 23.5235 47.9854 23.5904 47.9572C23.6574 47.9289 23.7182 47.8874 23.7694 47.8352L25.9763 45.5852C26.0275 45.533 26.0682 45.471 26.0959 45.4027C26.1237 45.3345 26.1379 45.2613 26.1379 45.1875C26.1379 45.1136 26.1237 45.0405 26.0959 44.9722C26.0682 44.904 26.0275 44.842 25.9763 44.7898L25.2629 44.0624L25.8817 43.4315C26.1929 43.1163 26.6134 42.9388 27.052 42.9374H35.1156C35.8405 42.9395 36.5585 42.7949 37.2282 42.5121C37.8979 42.2293 38.5059 41.8138 39.017 41.2897L45.267 34.9176C45.4994 34.6807 45.6837 34.3995 45.8095 34.09C45.9353 33.7804 46 33.4487 46 33.1136C46 32.7786 45.9353 32.4468 45.8095 32.1373C45.6837 31.8278 45.4994 31.5465 45.267 31.3097ZM23.3793 46.6421L15.3319 38.4374L16.7586 36.9828L24.806 45.1875L23.3793 46.6421ZM44.4868 34.1222L38.2368 40.4943C37.8279 40.9135 37.3414 41.2459 36.8057 41.4721C36.2699 41.6984 35.6955 41.814 35.1156 41.8124H27.052C26.6896 41.8114 26.3307 41.8837 25.9959 42.0251C25.6611 42.1665 25.3571 42.3742 25.1016 42.6361L24.4828 43.267L18.6423 37.3124L21.0472 34.8605C21.5437 34.3543 22.1397 33.961 22.7959 33.7064C23.4521 33.4519 24.1538 33.3418 24.8547 33.3834C25.5557 33.4251 26.24 33.6175 26.8628 33.948C27.4856 34.2786 28.0328 34.7398 28.4682 35.3013L28.5531 35.4109C28.6047 35.4776 28.6705 35.5315 28.7455 35.5686C28.8204 35.6056 28.9027 35.6249 28.986 35.6249H35.5172C35.8099 35.6249 36.0906 35.7434 36.2975 35.9544C36.5044 36.1653 36.6207 36.4515 36.6207 36.7499C36.6207 37.0482 36.5044 37.3344 36.2975 37.5454C36.0906 37.7563 35.8099 37.8749 35.5172 37.8749H27.7931C27.6468 37.8749 27.5065 37.9341 27.403 38.0396C27.2995 38.1451 27.2414 38.2882 27.2414 38.4374C27.2414 38.5866 27.2995 38.7296 27.403 38.8351C27.5065 38.9406 27.6468 38.9999 27.7931 38.9999H35.5172C36.0569 38.9982 36.5772 38.7944 36.9793 38.4274C37.3814 38.0604 37.6373 37.5557 37.6985 37.009L42.5084 32.105C42.7749 31.8456 43.1291 31.7009 43.4976 31.7009C43.8661 31.7009 44.2203 31.8456 44.4868 32.105C44.6167 32.2375 44.7198 32.3947 44.7901 32.5678C44.8604 32.7408 44.8966 32.9263 44.8966 33.1136C44.8966 33.3009 44.8604 33.4864 44.7901 33.6594C44.7198 33.8325 44.6167 33.9897 44.4868 34.1222Z" fill="white"/>
<path d="M23.2381 23.4622C23.2304 23.4732 23.2188 23.4794 23.2117 23.4912C23.2099 23.4942 23.2101 23.4977 23.2083 23.5008C21.5303 25.6737 20.6188 28.3593 20.6207 31.1248C20.6207 31.2168 20.6213 31.3083 20.6274 31.4C20.6371 31.542 20.6993 31.675 20.8013 31.7721C20.9033 31.8692 21.0377 31.9234 21.1773 31.9235C21.1902 31.9235 21.2031 31.923 21.2161 31.9221C21.2884 31.917 21.3589 31.8975 21.4238 31.8645C21.4887 31.8316 21.5465 31.786 21.5941 31.7302C21.6416 31.6745 21.6779 31.6098 21.701 31.5397C21.724 31.4697 21.7332 31.3957 21.7282 31.322C21.7236 31.2561 21.7242 31.1905 21.7242 31.1248C21.7246 28.7605 22.4606 26.4572 23.8262 24.5463C25.3865 25.585 26.2997 26.5885 26.3373 27.3361C26.2796 28.0473 26.0593 28.7347 25.694 29.3434C25.5315 29.6853 25.361 30.0451 25.2037 30.4305C25.1758 30.4987 25.1615 30.5718 25.1613 30.6457C25.1612 30.7196 25.1754 30.7927 25.203 30.861C25.2588 30.999 25.366 31.1087 25.5011 31.166C25.568 31.1944 25.6397 31.2091 25.7122 31.2092C25.7847 31.2093 25.8564 31.1949 25.9234 31.1667C26.0587 31.1099 26.1663 31.0005 26.2225 30.8628C26.3715 30.498 26.5334 30.1574 26.6873 29.8336C27.1453 29.0595 27.404 28.1799 27.4391 27.2765C27.3821 26.142 26.3937 24.9288 24.5204 23.6664C25.3651 22.6915 26.3684 21.8724 27.4862 21.2452C28.5608 23.3801 29.8538 24.5069 31.2656 24.5069C31.3683 24.5069 31.471 24.501 31.573 24.4893C32.5512 24.4258 33.4847 24.0493 34.2408 23.4134C34.7266 23.0305 34.9278 22.8723 36.0415 23.2689C37.0817 23.6382 38.1781 23.1753 39.1715 21.9741C40.0314 22.6021 40.7983 23.3528 41.4487 24.2032C40.7846 24.9264 40.262 25.7721 39.909 26.6951C39.4383 27.7426 39.1202 28.3878 38.5351 28.4438C38.155 28.4679 37.7737 28.4663 37.3939 28.4389C35.9381 28.3658 34.1275 28.2793 32.8341 30.8716C32.5408 31.4557 32.3438 32.085 32.2508 32.7343C32.2306 32.882 32.2687 33.0319 32.3568 33.151C32.4449 33.2701 32.5758 33.3486 32.7207 33.3693C32.7463 33.3731 32.7721 33.3749 32.798 33.3748C32.9309 33.3747 33.0593 33.3255 33.1595 33.2365C33.2598 33.1475 33.3251 33.0246 33.3435 32.8903C33.4185 32.3635 33.579 31.8531 33.8184 31.38C34.7872 29.4381 35.9154 29.495 37.3413 29.5625C37.7725 29.5933 38.2053 29.5939 38.6366 29.5642C39.8879 29.4439 40.4087 28.2845 40.9122 27.1634C41.1974 26.4278 41.5968 25.7438 42.0951 25.1376C42.833 26.3281 43.3431 27.6503 43.5983 29.0344C43.6116 29.107 43.6388 29.1763 43.6783 29.2383C43.7178 29.3002 43.7689 29.3536 43.8287 29.3954C43.8885 29.4372 43.9557 29.4666 44.0267 29.4819C44.0976 29.4972 44.1708 29.498 44.242 29.4845C44.3133 29.4709 44.3812 29.4432 44.4419 29.4028C44.5027 29.3624 44.555 29.3103 44.596 29.2493C44.6369 29.1883 44.6657 29.1197 44.6806 29.0474C44.6955 28.9751 44.6963 28.9005 44.6829 28.8278C44.175 26.0911 42.7756 23.6094 40.7115 21.7847C38.6474 19.9601 36.0395 18.8995 33.3104 18.7746V18.1531C33.3104 17.8381 33.3973 17.5294 33.5612 17.2623C33.7251 16.9953 33.9593 16.7805 34.2371 16.6426C34.5441 17.0073 34.9247 17.3 35.3529 17.5008C35.7812 17.7015 36.2469 17.8055 36.7182 17.8057C37.1652 17.8018 37.6082 17.7206 38.0286 17.5656C38.7323 17.3145 39.3997 16.9681 40.0129 16.5357C40.2784 16.2927 40.605 16.13 40.9561 16.0656C41.3072 16.0013 41.669 16.038 42.0008 16.1715C42.1126 16.2007 42.2305 16.1935 42.338 16.1508C42.4455 16.1081 42.5372 16.0322 42.6002 15.9336C42.6632 15.8351 42.6943 15.7189 42.6891 15.6014C42.6839 15.4838 42.6428 15.3709 42.5714 15.2785C42.4531 15.1252 39.6439 11.5374 36.9397 12.0507C34.3294 12.5467 34.0236 14.1609 33.8964 15.5607C33.4438 15.7562 33.0509 16.072 32.7587 16.475C32.4665 16.0719 32.0735 15.7561 31.6208 15.5605C31.4935 14.1608 31.1878 12.5467 28.5776 12.0507C25.8731 11.5346 23.0641 15.1255 22.9459 15.2785C22.8745 15.3709 22.8333 15.4838 22.8282 15.6013C22.823 15.7188 22.8541 15.835 22.9171 15.9336C22.98 16.0322 23.0717 16.1081 23.1792 16.1508C23.2868 16.1934 23.4047 16.2007 23.5165 16.1714C23.8483 16.0379 24.21 16.0012 24.5611 16.0655C24.9123 16.1298 25.2389 16.2926 25.5043 16.5356C26.1175 16.968 26.785 17.3145 27.4887 17.5656C27.909 17.7207 28.3521 17.8019 28.799 17.8057C29.2704 17.8055 29.7361 17.7014 30.1643 17.5007C30.5926 17.3 30.9732 17.0072 31.2802 16.6426C31.558 16.7805 31.7922 16.9952 31.9561 17.2623C32.1199 17.5294 32.2069 17.8381 32.2069 18.1531V18.764C30.4685 18.8434 28.7674 19.3043 27.2196 20.1151C25.6718 20.9259 24.3137 22.0676 23.2381 23.4622ZM37.1417 13.1565C38.3505 12.9249 39.7955 13.9953 40.7794 14.9536C40.2806 15.0593 39.8118 15.2785 39.4079 15.5949C38.8693 15.9769 38.2824 16.2826 37.6633 16.5038C37.2814 16.6736 36.8609 16.7322 36.4484 16.673C36.0358 16.6138 35.6475 16.4391 35.3265 16.1684L36.7848 15.5444C36.8518 15.5159 36.9126 15.4743 36.9638 15.4218C37.015 15.3693 37.0555 15.3071 37.083 15.2386C37.1106 15.1702 37.1246 15.0968 37.1243 15.0228C37.124 14.9488 37.1094 14.8756 37.0813 14.8074C37.0532 14.7391 37.0121 14.6772 36.9605 14.6252C36.9089 14.5732 36.8477 14.5321 36.7805 14.5042C36.7133 14.4763 36.6413 14.4622 36.5687 14.4627C36.4961 14.4633 36.4244 14.4784 36.3575 14.5073L35.0654 15.0603C35.2187 14.0981 35.6062 13.4484 37.1417 13.1565ZM27.854 16.5038C27.2348 16.2826 26.648 15.9769 26.1094 15.5949C25.7051 15.278 25.2356 15.0587 24.7363 14.9533C25.7185 13.9948 27.1592 12.9261 28.3755 13.1565C29.9111 13.4484 30.2985 14.0981 30.4518 15.0602L29.1598 14.5073C29.093 14.4787 29.0213 14.4637 28.9489 14.4634C28.8764 14.463 28.8046 14.4772 28.7375 14.5051C28.6705 14.5331 28.6095 14.5742 28.558 14.6261C28.5065 14.6781 28.4656 14.7399 28.4375 14.808C28.4095 14.8761 28.3948 14.9492 28.3945 15.023C28.3941 15.0969 28.408 15.1701 28.4354 15.2385C28.4628 15.3069 28.5032 15.3691 28.5541 15.4216C28.6051 15.474 28.6657 15.5158 28.7325 15.5444L30.191 16.1684C29.8699 16.439 29.4815 16.6135 29.069 16.6727C28.6564 16.7319 28.2359 16.6734 27.854 16.5038ZM36.4052 22.2066C34.8437 21.6512 34.267 21.9712 33.566 22.5233C32.9693 23.0313 32.2273 23.3288 31.451 23.3711C30.1438 23.5239 29.0917 21.9784 28.4728 20.7582C30.0363 20.0862 31.7308 19.7909 33.4245 19.8951C35.1181 19.9994 36.7654 20.5005 38.2382 21.3594C37.7601 21.9083 37.0857 22.449 36.4052 22.2066Z" fill="white"/>
<path d="M45.267 31.3097C45.0346 31.0727 44.7588 30.8848 44.4552 30.7565C44.1516 30.6283 43.8262 30.5623 43.4976 30.5623C43.169 30.5623 42.8436 30.6283 42.54 30.7565C42.2364 30.8848 41.9605 31.0727 41.7282 31.3097L37.4448 35.6767C37.2569 35.322 36.9787 35.0256 36.6395 34.8185C36.3003 34.6114 35.9126 34.5013 35.5172 34.4998H29.2516C28.7122 33.8343 28.0424 33.2909 27.285 32.9046C26.5277 32.5184 25.6995 32.2977 24.8536 32.2568C24.0077 32.2158 23.1628 32.3555 22.373 32.6669C21.5831 32.9783 20.8658 33.4545 20.267 34.065L17.8621 36.517L17.1487 35.7897C17.0975 35.7374 17.0367 35.696 16.9697 35.6677C16.9028 35.6394 16.8311 35.6249 16.7586 35.6249C16.6862 35.6249 16.6144 35.6394 16.5475 35.6677C16.4806 35.696 16.4198 35.7374 16.3685 35.7897L14.1616 38.0397C14.1104 38.0919 14.0697 38.1539 14.042 38.2221C14.0143 38.2904 14 38.3635 14 38.4374C14 38.5113 14.0143 38.5844 14.042 38.6526C14.0697 38.7209 14.1104 38.7829 14.1616 38.8351L22.9892 47.8352C23.0404 47.8874 23.1013 47.9289 23.1682 47.9572C23.2351 47.9854 23.3069 48 23.3793 48C23.4518 48 23.5235 47.9854 23.5904 47.9572C23.6574 47.9289 23.7182 47.8874 23.7694 47.8352L25.9763 45.5852C26.0275 45.533 26.0682 45.471 26.0959 45.4027C26.1237 45.3345 26.1379 45.2613 26.1379 45.1875C26.1379 45.1136 26.1237 45.0405 26.0959 44.9722C26.0682 44.904 26.0275 44.842 25.9763 44.7898L25.2629 44.0624L25.8817 43.4315C26.1929 43.1163 26.6134 42.9388 27.052 42.9374H35.1156C35.8405 42.9395 36.5585 42.7949 37.2282 42.5121C37.8979 42.2293 38.5059 41.8138 39.017 41.2897L45.267 34.9176C45.4994 34.6807 45.6837 34.3995 45.8095 34.09C45.9353 33.7804 46 33.4487 46 33.1136C46 32.7786 45.9353 32.4468 45.8095 32.1373C45.6837 31.8278 45.4994 31.5465 45.267 31.3097ZM23.3793 46.6421L15.3319 38.4374L16.7586 36.9828L24.806 45.1875L23.3793 46.6421ZM44.4868 34.1222L38.2368 40.4943C37.8279 40.9135 37.3414 41.2459 36.8057 41.4721C36.2699 41.6984 35.6955 41.814 35.1156 41.8124H27.052C26.6896 41.8114 26.3307 41.8837 25.9959 42.0251C25.6611 42.1665 25.3571 42.3742 25.1016 42.6361L24.4828 43.267L18.6423 37.3124L21.0472 34.8605C21.5437 34.3543 22.1397 33.961 22.7959 33.7064C23.4521 33.4519 24.1538 33.3418 24.8547 33.3834C25.5557 33.4251 26.24 33.6175 26.8628 33.948C27.4856 34.2786 28.0328 34.7398 28.4682 35.3013L28.5531 35.4109C28.6047 35.4776 28.6705 35.5315 28.7455 35.5686C28.8204 35.6056 28.9027 35.6249 28.986 35.6249H35.5172C35.8099 35.6249 36.0906 35.7434 36.2975 35.9544C36.5044 36.1653 36.6207 36.4515 36.6207 36.7499C36.6207 37.0482 36.5044 37.3344 36.2975 37.5454C36.0906 37.7563 35.8099 37.8749 35.5172 37.8749H27.7931C27.6468 37.8749 27.5065 37.9341 27.403 38.0396C27.2995 38.1451 27.2414 38.2882 27.2414 38.4374C27.2414 38.5866 27.2995 38.7296 27.403 38.8351C27.5065 38.9406 27.6468 38.9999 27.7931 38.9999H35.5172C36.0569 38.9982 36.5772 38.7944 36.9793 38.4274C37.3814 38.0604 37.6373 37.5557 37.6985 37.009L42.5084 32.105C42.7749 31.8456 43.1291 31.7009 43.4976 31.7009C43.8661 31.7009 44.2203 31.8456 44.4868 32.105C44.6167 32.2375 44.7198 32.3947 44.7901 32.5678C44.8604 32.7408 44.8966 32.9263 44.8966 33.1136C44.8966 33.3009 44.8604 33.4864 44.7901 33.6594C44.7198 33.8325 44.6167 33.9897 44.4868 34.1222Z" stroke="black" stroke-width="2" mask="url(#path-1-inside-1_8_67)"/>
<path d="M23.2381 23.4622C23.2304 23.4732 23.2188 23.4794 23.2117 23.4912C23.2099 23.4942 23.2101 23.4977 23.2083 23.5008C21.5303 25.6737 20.6188 28.3593 20.6207 31.1248C20.6207 31.2168 20.6213 31.3083 20.6274 31.4C20.6371 31.542 20.6993 31.675 20.8013 31.7721C20.9033 31.8692 21.0377 31.9234 21.1773 31.9235C21.1902 31.9235 21.2031 31.923 21.2161 31.9221C21.2884 31.917 21.3589 31.8975 21.4238 31.8645C21.4887 31.8316 21.5465 31.786 21.5941 31.7302C21.6416 31.6745 21.6779 31.6098 21.701 31.5397C21.724 31.4697 21.7332 31.3957 21.7282 31.322C21.7236 31.2561 21.7242 31.1905 21.7242 31.1248C21.7246 28.7605 22.4606 26.4572 23.8262 24.5463C25.3865 25.585 26.2997 26.5885 26.3373 27.3361C26.2796 28.0473 26.0593 28.7347 25.694 29.3434C25.5315 29.6853 25.361 30.0451 25.2037 30.4305C25.1758 30.4987 25.1615 30.5718 25.1613 30.6457C25.1612 30.7196 25.1754 30.7927 25.203 30.861C25.2588 30.999 25.366 31.1087 25.5011 31.166C25.568 31.1944 25.6397 31.2091 25.7122 31.2092C25.7847 31.2093 25.8564 31.1949 25.9234 31.1667C26.0587 31.1099 26.1663 31.0005 26.2225 30.8628C26.3715 30.498 26.5334 30.1574 26.6873 29.8336C27.1453 29.0595 27.404 28.1799 27.4391 27.2765C27.3821 26.142 26.3937 24.9288 24.5204 23.6664C25.3651 22.6915 26.3684 21.8724 27.4862 21.2452C28.5608 23.3801 29.8538 24.5069 31.2656 24.5069C31.3683 24.5069 31.471 24.501 31.573 24.4893C32.5512 24.4258 33.4847 24.0493 34.2408 23.4134C34.7266 23.0305 34.9278 22.8723 36.0415 23.2689C37.0817 23.6382 38.1781 23.1753 39.1715 21.9741C40.0314 22.6021 40.7983 23.3528 41.4487 24.2032C40.7846 24.9264 40.262 25.7721 39.909 26.6951C39.4383 27.7426 39.1202 28.3878 38.5351 28.4438C38.155 28.4679 37.7737 28.4663 37.3939 28.4389C35.9381 28.3658 34.1275 28.2793 32.8341 30.8716C32.5408 31.4557 32.3438 32.085 32.2508 32.7343C32.2306 32.882 32.2687 33.0319 32.3568 33.151C32.4449 33.2701 32.5758 33.3486 32.7207 33.3693C32.7463 33.3731 32.7721 33.3749 32.798 33.3748C32.9309 33.3747 33.0593 33.3255 33.1595 33.2365C33.2598 33.1475 33.3251 33.0246 33.3435 32.8903C33.4185 32.3635 33.579 31.8531 33.8184 31.38C34.7872 29.4381 35.9154 29.495 37.3413 29.5625C37.7725 29.5933 38.2053 29.5939 38.6366 29.5642C39.8879 29.4439 40.4087 28.2845 40.9122 27.1634C41.1974 26.4278 41.5968 25.7438 42.0951 25.1376C42.833 26.3281 43.3431 27.6503 43.5983 29.0344C43.6116 29.107 43.6388 29.1763 43.6783 29.2383C43.7178 29.3002 43.7689 29.3536 43.8287 29.3954C43.8885 29.4372 43.9557 29.4666 44.0267 29.4819C44.0976 29.4972 44.1708 29.498 44.242 29.4845C44.3133 29.4709 44.3812 29.4432 44.4419 29.4028C44.5027 29.3624 44.555 29.3103 44.596 29.2493C44.6369 29.1883 44.6657 29.1197 44.6806 29.0474C44.6955 28.9751 44.6963 28.9005 44.6829 28.8278C44.175 26.0911 42.7756 23.6094 40.7115 21.7847C38.6474 19.9601 36.0395 18.8995 33.3104 18.7746V18.1531C33.3104 17.8381 33.3973 17.5294 33.5612 17.2623C33.7251 16.9953 33.9593 16.7805 34.2371 16.6426C34.5441 17.0073 34.9247 17.3 35.3529 17.5008C35.7812 17.7015 36.2469 17.8055 36.7182 17.8057C37.1652 17.8018 37.6082 17.7206 38.0286 17.5656C38.7323 17.3145 39.3997 16.9681 40.0129 16.5357C40.2784 16.2927 40.605 16.13 40.9561 16.0656C41.3072 16.0013 41.669 16.038 42.0008 16.1715C42.1126 16.2007 42.2305 16.1935 42.338 16.1508C42.4455 16.1081 42.5372 16.0322 42.6002 15.9336C42.6632 15.8351 42.6943 15.7189 42.6891 15.6014C42.6839 15.4838 42.6428 15.3709 42.5714 15.2785C42.4531 15.1252 39.6439 11.5374 36.9397 12.0507C34.3294 12.5467 34.0236 14.1609 33.8964 15.5607C33.4438 15.7562 33.0509 16.072 32.7587 16.475C32.4665 16.0719 32.0735 15.7561 31.6208 15.5605C31.4935 14.1608 31.1878 12.5467 28.5776 12.0507C25.8731 11.5346 23.0641 15.1255 22.9459 15.2785C22.8745 15.3709 22.8333 15.4838 22.8282 15.6013C22.823 15.7188 22.8541 15.835 22.9171 15.9336C22.98 16.0322 23.0717 16.1081 23.1792 16.1508C23.2868 16.1934 23.4047 16.2007 23.5165 16.1714C23.8483 16.0379 24.21 16.0012 24.5611 16.0655C24.9123 16.1298 25.2389 16.2926 25.5043 16.5356C26.1175 16.968 26.785 17.3145 27.4887 17.5656C27.909 17.7207 28.3521 17.8019 28.799 17.8057C29.2704 17.8055 29.7361 17.7014 30.1643 17.5007C30.5926 17.3 30.9732 17.0072 31.2802 16.6426C31.558 16.7805 31.7922 16.9952 31.9561 17.2623C32.1199 17.5294 32.2069 17.8381 32.2069 18.1531V18.764C30.4685 18.8434 28.7674 19.3043 27.2196 20.1151C25.6718 20.9259 24.3137 22.0676 23.2381 23.4622ZM37.1417 13.1565C38.3505 12.9249 39.7955 13.9953 40.7794 14.9536C40.2806 15.0593 39.8118 15.2785 39.4079 15.5949C38.8693 15.9769 38.2824 16.2826 37.6633 16.5038C37.2814 16.6736 36.8609 16.7322 36.4484 16.673C36.0358 16.6138 35.6475 16.4391 35.3265 16.1684L36.7848 15.5444C36.8518 15.5159 36.9126 15.4743 36.9638 15.4218C37.015 15.3693 37.0555 15.3071 37.083 15.2386C37.1106 15.1702 37.1246 15.0968 37.1243 15.0228C37.124 14.9488 37.1094 14.8756 37.0813 14.8074C37.0532 14.7391 37.0121 14.6772 36.9605 14.6252C36.9089 14.5732 36.8477 14.5321 36.7805 14.5042C36.7133 14.4763 36.6413 14.4622 36.5687 14.4627C36.4961 14.4633 36.4244 14.4784 36.3575 14.5073L35.0654 15.0603C35.2187 14.0981 35.6062 13.4484 37.1417 13.1565ZM27.854 16.5038C27.2348 16.2826 26.648 15.9769 26.1094 15.5949C25.7051 15.278 25.2356 15.0587 24.7363 14.9533C25.7185 13.9948 27.1592 12.9261 28.3755 13.1565C29.9111 13.4484 30.2985 14.0981 30.4518 15.0602L29.1598 14.5073C29.093 14.4787 29.0213 14.4637 28.9489 14.4634C28.8764 14.463 28.8046 14.4772 28.7375 14.5051C28.6705 14.5331 28.6095 14.5742 28.558 14.6261C28.5065 14.6781 28.4656 14.7399 28.4375 14.808C28.4095 14.8761 28.3948 14.9492 28.3945 15.023C28.3941 15.0969 28.408 15.1701 28.4354 15.2385C28.4628 15.3069 28.5032 15.3691 28.5541 15.4216C28.6051 15.474 28.6657 15.5158 28.7325 15.5444L30.191 16.1684C29.8699 16.439 29.4815 16.6135 29.069 16.6727C28.6564 16.7319 28.2359 16.6734 27.854 16.5038ZM36.4052 22.2066C34.8437 21.6512 34.267 21.9712 33.566 22.5233C32.9693 23.0313 32.2273 23.3288 31.451 23.3711C30.1438 23.5239 29.0917 21.9784 28.4728 20.7582C30.0363 20.0862 31.7308 19.7909 33.4245 19.8951C35.1181 19.9994 36.7654 20.5005 38.2382 21.3594C37.7601 21.9083 37.0857 22.449 36.4052 22.2066Z" stroke="black" stroke-width="2" mask="url(#path-1-inside-1_8_67)"/>
<circle cx="30" cy="30" r="29.5" stroke="#E9E9E9"/>
</svg>
