<svg width="60" height="60" viewBox="0 0 60 60" fill="none" xmlns="http://www.w3.org/2000/svg">
<circle cx="30" cy="30" r="29.5" stroke="#E9E9E9"/>
<path d="M48 33.8061V26.1939H43.851C43.5345 25.0425 43.0758 23.9377 42.483 22.8996L45.4192 19.9634L40.0366 14.5808L37.1004 17.517C36.0623 16.9243 34.9575 16.4655 33.8061 16.149V12H26.1939V16.149C25.0425 16.4655 23.9377 16.9243 22.8996 17.517L19.9634 14.5808L14.5808 19.9634L17.517 22.8997C17.3447 23.2016 17.1829 23.5107 17.0338 23.8226L17.9893 24.2793C18.1828 23.8745 18.3995 23.4747 18.6336 23.0911L18.8506 22.7355L16.0785 19.9633L19.9633 16.0785L22.7354 18.8506L23.0911 18.6336C24.2581 17.9216 25.5224 17.3965 26.8488 17.0732L27.2529 16.9746V13.0591H32.7469V16.9747L33.1511 17.0732C34.4775 17.3966 35.7417 17.9216 36.9088 18.6337L37.2644 18.8507L40.0365 16.0785L43.9214 19.9634L41.1493 22.7355L41.3663 23.0912C42.0783 24.2582 42.6033 25.5225 42.9267 26.8489L43.0253 27.253H46.9408V32.7471H43.0253L42.9267 33.1512C42.6033 34.4776 42.0783 35.7419 41.3663 36.9089L41.1493 37.2645L43.9214 40.0367L40.0365 43.9215L37.2644 41.1494L36.9088 41.3664C35.7417 42.0784 34.4775 42.6035 33.1511 42.9268L32.7469 43.0254V46.941H27.2529V43.0254L26.8488 42.9268C25.5224 42.6035 24.2581 42.0784 23.0911 41.3664L22.7354 41.1494L19.9633 43.9215L16.0785 40.0367L18.8506 37.2645L18.6336 36.9089C17.9215 35.7419 17.3965 34.4776 17.0731 33.1512L16.9746 32.7471H13.0591V27.253H16.9747L17.0732 26.8489C17.2085 26.2941 17.3815 25.7428 17.5874 25.2105L16.5997 24.8283C16.4273 25.2739 16.2763 25.7316 16.1491 26.1939H12V33.8061H16.149C16.4655 34.9575 16.9242 36.0623 17.517 37.1004L14.5808 40.0366L19.9634 45.4192L22.8996 42.483C23.9377 43.0758 25.0425 43.5345 26.1939 43.851V48H33.8061V43.851C34.9575 43.5345 36.0623 43.0758 37.1004 42.483L40.0366 45.4192L45.4192 40.0366L42.483 37.1004C43.0758 36.0623 43.5345 34.9575 43.851 33.8061H48V33.8061Z" fill="#1F1F25"/>
<path d="M23.4163 36.5218L24.1687 35.7764C22.636 34.2293 21.792 32.1779 21.792 30C21.792 25.4741 25.4741 21.792 30 21.792C34.5259 21.792 38.2079 25.4741 38.2079 30C38.2079 34.5259 34.5259 38.208 30 38.208C28.1341 38.208 26.3759 37.5979 24.9154 36.4439L24.2588 37.2749C25.9082 38.5782 27.8934 39.2671 30 39.2671C35.1098 39.2671 39.267 35.1099 39.267 30C39.267 24.8901 35.1099 20.733 30 20.733C24.8902 20.733 20.733 24.8902 20.733 30.0001C20.733 32.4589 21.686 34.7751 23.4163 36.5218Z" fill="#1F1F25"/>
<path d="M27.5896 29.3727L26.731 29.9928L28.9907 33.1213L33.2444 28.0798L32.4349 27.3968L29.0555 31.4022L27.5896 29.3727Z" fill="#1F1F25"/>
<path d="M36.2148 31.3311C36.3075 30.8962 36.3545 30.4483 36.3545 30C36.3545 26.4961 33.5039 23.6455 30 23.6455C26.4962 23.6455 23.6455 26.4961 23.6455 30C23.6455 33.5039 26.4962 36.3545 30 36.3545C32.5788 36.3545 34.8835 34.8154 35.8717 32.4336L34.8936 32.0278C34.07 34.0128 32.1491 35.2954 30 35.2954C27.0801 35.2954 24.7046 32.9199 24.7046 30C24.7046 27.0801 27.0801 24.7046 30 24.7046C32.9199 24.7046 35.2954 27.0801 35.2954 30C35.2954 30.3743 35.2563 30.7478 35.179 31.1103L36.2148 31.3311Z" fill="#1F1F25"/>
<path d="M25.664 19.4726C25.3235 19.6134 24.9856 19.7728 24.6598 19.9465L25.158 20.8811C25.4535 20.7235 25.7599 20.5789 26.0686 20.4514L25.664 19.4726Z" fill="#1F1F25"/>
<path d="M27.7879 18.8306C27.4258 18.9022 27.0632 18.9926 26.7101 19.0993L27.0167 20.1131C27.3367 20.0163 27.6653 19.9344 27.9934 19.8695L27.7879 18.8306Z" fill="#1F1F25"/>
<path d="M24.2936 21.3978L23.7068 20.5162C23.4 20.7204 23.0995 20.9422 22.8137 21.1753L23.4832 21.9959C23.7425 21.7844 24.0152 21.5831 24.2936 21.3978Z" fill="#1F1F25"/>
</svg>
