<svg width="60" height="60" viewBox="0 0 60 60" fill="none" xmlns="http://www.w3.org/2000/svg">
<circle cx="30" cy="30" r="29.5" stroke="#E9E9E9"/>
<path d="M46.1647 39.7097L42.3465 35.9398C42.486 35.7982 42.6212 35.6584 42.7474 35.5258C42.893 35.3734 43.0337 35.2264 43.1689 35.0902C43.5013 34.825 45.3513 33.2728 45.4168 31.5999C45.4429 30.9315 45.1779 30.3219 44.6495 29.8371C44.2723 29.4909 43.838 29.2935 43.3673 29.2419C43.3727 29.1873 43.3818 29.1327 43.3837 29.0775C43.4073 28.4151 43.1441 27.8127 42.623 27.3345C42.1499 26.9001 41.5688 26.6937 40.935 26.7393C40.7961 26.7489 40.659 26.7741 40.5225 26.8059C40.6014 26.5605 40.6554 26.3115 40.6663 26.0625C40.6924 25.4714 40.4922 24.9338 40.0864 24.5096C39.3325 23.7206 38.5609 23.6276 38.0472 23.6906C37.7469 23.7266 37.4606 23.8244 37.1895 23.9582C37.1925 23.8052 37.1853 23.654 37.1574 23.5058C37.053 22.9562 36.7304 22.5116 36.2227 22.2188C34.3545 21.1436 32.4863 23.0084 31.6031 24.383C31.2629 24.3344 30.9286 24.3176 30.6023 24.332L28.89 22.64C30.0819 19.7996 29.4226 16.4851 27.1862 14.2675C24.6926 11.802 20.8337 11.2878 17.804 13.017C17.6402 13.1101 17.5304 13.2733 17.5056 13.4581C17.4807 13.6435 17.545 13.8295 17.6778 13.9615L21.8982 18.1333L19.6649 20.3414L15.6234 16.3459C15.4815 16.2055 15.2795 16.1425 15.0824 16.1809C14.8852 16.2169 14.7196 16.3477 14.639 16.5295C13.3682 19.3939 14.0312 22.8134 16.2864 25.0364C18.5264 27.2511 21.88 27.9069 24.7557 26.7279L25.8184 27.7785C25.0026 29.6493 25.355 31.5789 25.557 32.3536L23.653 34.4692L23.1969 33.9892C23.0822 33.8686 22.9221 33.8002 22.7547 33.8002C22.7547 33.8002 22.7547 33.8002 22.7541 33.8002C22.5867 33.8002 22.4265 33.8686 22.3119 33.9898L19.486 36.9736C19.2688 37.2034 19.2676 37.5604 19.4835 37.7908L28.8427 47.8074C28.9549 47.9274 29.112 47.997 29.2776 48H29.2879C29.4499 48 29.6045 47.9364 29.7186 47.8224L32.7034 44.8415C32.9333 44.6117 32.9382 44.2439 32.7143 44.0081L32.4638 43.7447C32.8963 43.1117 33.9238 41.8835 35.2273 42.1907C36.4131 42.4661 37.6462 41.8865 38.7465 40.5551L42.0274 43.7969C42.5824 44.3489 43.3127 44.6255 44.043 44.6255C44.7636 44.6255 45.4842 44.3561 46.0343 43.8155L46.1823 43.6691C46.7137 43.1441 47.0042 42.4415 47 41.6909C46.9969 40.9421 46.6997 40.2389 46.1647 39.7097ZM43.8246 30.7179C44.0964 30.9669 44.2171 31.2315 44.2043 31.5525C44.1661 32.5588 42.8778 33.7864 42.3847 34.1746C42.3659 34.189 42.3477 34.2058 42.3313 34.222C42.1821 34.3708 42.0268 34.5334 41.8661 34.702C40.4352 36.199 39.6182 36.805 38.8454 36.1882C38.2746 35.734 38.4372 35.1496 38.5991 34.8214C39.4192 34.399 40.1598 33.625 40.7451 33.0058C40.8889 32.8534 41.0284 32.7058 41.1625 32.5696C41.3984 32.3782 42.4035 31.5225 42.9779 30.4407C43.3018 30.4035 43.5772 30.4905 43.8246 30.7179ZM41.0236 27.9363C41.3208 27.9189 41.5682 28.0041 41.7981 28.2153C42.0638 28.4583 42.1821 28.7193 42.1712 29.0349C42.1366 30.0363 40.8604 31.2687 40.3721 31.6587C40.3539 31.6731 40.3357 31.6893 40.3193 31.7061C40.172 31.8549 40.0179 32.0181 39.859 32.1868C38.4457 33.6838 37.6396 34.2916 36.882 33.6916C36.1741 33.1312 36.6121 32.3626 36.7049 32.2179C36.7322 32.1771 36.7419 32.1315 36.7576 32.0871C37.7124 32.0727 38.2176 31.6365 38.416 31.4061C38.8739 30.8757 38.9673 30.1407 38.7332 29.4321C38.8782 29.2899 39.0583 29.1033 39.2518 28.8825C39.768 28.4307 40.4316 27.9777 41.0236 27.9363ZM38.1952 24.8822C38.5433 24.8396 38.8757 24.9884 39.2063 25.334C39.3883 25.5242 39.4671 25.739 39.4556 26.0085C39.4271 26.6583 38.897 27.4383 38.3862 28.0341C38.268 28.1403 38.1582 28.2435 38.0611 28.3395C38.0423 28.3197 38.0278 28.2981 38.0084 28.2783C37.3691 27.6435 36.751 27.0951 36.1487 26.6151C36.2281 26.4999 36.3161 26.3661 36.4065 26.2161C36.8723 25.6244 37.5413 24.959 38.1952 24.8822ZM35.6137 23.2568C35.8181 23.3744 35.9267 23.5196 35.9661 23.726C36.0589 24.2138 35.7556 24.9332 35.4002 25.5368C35.3056 25.6598 35.22 25.7762 35.1478 25.8813C34.3605 25.3508 33.6023 24.9584 32.8672 24.701C33.4192 23.9726 34.5995 22.6706 35.6137 23.2568ZM25.3186 25.5872C25.136 25.406 24.8582 25.3592 24.6265 25.4714C22.1318 26.6607 19.1251 26.1459 17.144 24.1868C15.4596 22.526 14.827 20.0786 15.4439 17.8645L19.2367 21.6134C19.4738 21.848 19.8572 21.848 20.0943 21.6134L23.186 18.5569C23.3 18.4441 23.3637 18.2923 23.3637 18.1327C23.3637 17.9731 23.3 17.8207 23.186 17.7085L19.1323 13.7017C21.5561 12.6924 24.4167 13.2259 26.3279 15.1147C28.3041 17.0743 28.8239 20.0468 27.6211 22.511C27.5089 22.7408 27.5562 23.0162 27.7388 23.1962L29.1672 24.608C28.3708 24.8942 27.6253 25.3934 26.9369 26.1063C26.7513 26.2983 26.5918 26.4975 26.4438 26.6991L25.3186 25.5872ZM29.3043 46.5324L20.7585 37.3864L22.7559 35.2768L31.4303 44.4083L29.3043 46.5324ZM35.5069 41.0225C33.6448 40.5899 32.2819 41.9681 31.6195 42.8549L24.4876 35.347L26.6864 32.9038C26.8314 32.7424 26.8775 32.515 26.8071 32.3104C26.7962 32.2786 25.7335 29.0889 27.814 26.9355C28.9258 25.7846 30.1498 25.3436 31.5595 25.5842C33.1814 25.8621 35.0623 27.0537 37.1483 29.1255C37.7014 29.6739 37.7579 30.3195 37.4928 30.6267C37.0397 31.1529 35.5269 30.9855 33.2748 29.3769C32.4881 28.8141 31.8718 28.9125 31.494 29.0931C30.1128 29.7537 29.9133 32.605 29.8872 33.169C29.872 33.5002 30.1304 33.781 30.4652 33.796C30.7903 33.796 31.0833 33.5554 31.0991 33.2242C31.1021 33.1552 31.11 33.0838 31.1149 33.0136L37.8846 39.7031C37.3175 40.4171 36.4392 41.2373 35.5069 41.0225ZM45.3253 42.8213L45.1791 42.9659C44.5476 43.5851 43.5207 43.5785 42.8875 42.9491L31.3447 31.5435C31.514 30.8571 31.7523 30.3027 32.0229 30.1737C32.1691 30.1077 32.3995 30.2313 32.5657 30.3495C33.7516 31.1973 34.7202 31.6647 35.5081 31.8963C35.1879 32.6074 35.0387 33.7696 36.125 34.6282C36.5077 34.9306 36.8874 35.0758 37.2599 35.116C37.1677 35.7952 37.3521 36.538 38.0854 37.1218C38.5476 37.4902 39.0068 37.6408 39.4532 37.6408C40.1671 37.6408 40.8464 37.2514 41.4572 36.7564L45.3077 40.5575C45.6152 40.8617 45.7862 41.2667 45.7887 41.6963C45.7905 42.1247 45.6261 42.5237 45.3253 42.8213Z" fill="#1F1F25"/>
</svg>
