<svg width="60" height="60" viewBox="0 0 60 60" fill="none" xmlns="http://www.w3.org/2000/svg">
<circle cx="30" cy="30" r="29.5" stroke="#E9E9E9"/>
<path d="M30.7778 37.6112C30.8644 38.3254 30.6734 38.9772 30.2253 39.4961C29.6954 40.1099 28.8123 40.5206 27.8079 40.6337V41.4041C27.8079 41.7247 27.5483 41.9847 27.2282 41.9847C26.9081 41.9847 26.6485 41.7247 26.6485 41.4041V40.6254C25.1636 40.4254 24.0087 39.4877 23.6751 38.1475C23.5977 37.8364 23.7867 37.5212 24.0973 37.4437C24.4082 37.3665 24.7226 37.5555 24.8001 37.8666C25.0984 39.065 26.2674 39.494 27.2251 39.5036C27.2302 39.5036 27.2354 39.5037 27.2404 39.5038C27.2726 39.5036 27.3045 39.5036 27.3361 39.5028C28.1738 39.4829 28.9637 39.182 29.3484 38.7364C29.5832 38.4645 29.6743 38.1422 29.6269 37.7511C29.515 36.8282 28.7489 36.2988 27.1428 36.0347C24.6082 35.6179 24.0181 34.3323 23.9695 33.3272C23.902 31.9343 24.876 30.7668 26.3933 30.4221C26.4768 30.4031 26.5621 30.3869 26.6485 30.3736V29.5866C26.6485 29.2659 26.9081 29.0059 27.2282 29.0059C27.5483 29.0059 27.8079 29.2659 27.8079 29.5866V30.3686C28.8959 30.5264 29.9711 31.155 30.5071 32.4341C30.6311 32.7297 30.4923 33.0701 30.1971 33.1942C29.9019 33.3184 29.5621 33.1793 29.4382 32.8836C29.0218 31.8903 28.1308 31.487 27.271 31.4856C27.2473 31.4874 27.2228 31.4875 27.1988 31.4865C27.0118 31.491 26.8271 31.5144 26.6497 31.5547C25.8821 31.729 25.0791 32.2715 25.1275 33.2709C25.1427 33.584 25.1888 34.5366 27.3306 34.8888C28.1172 35.0182 30.5112 35.4118 30.7778 37.6112ZM44.767 41.2577L39.3435 47.6559C39.1554 47.8778 38.8919 47.9999 38.6013 47.9999C38.3108 47.9999 38.0472 47.8777 37.8592 47.656L35.6892 45.096C33.4534 46.9768 30.5715 48 27.4874 48C27.412 48 27.3367 47.9993 27.261 47.9982C27.1873 47.9994 27.1128 47.9999 27.0392 47.9999C22.5695 48.0001 18.5101 45.8121 16.404 42.2523C14.4928 39.0221 14.5346 35.1681 16.5186 31.6788C17.7604 29.4948 19.6623 27.0218 22.4681 23.9474C21.6712 23.5843 21.1154 22.7798 21.1154 21.8472C21.1154 20.5941 22.1187 19.5718 23.363 19.5424L21.5303 17.7068C20.614 16.7889 20.614 15.2955 21.5303 14.3777C22.3059 13.6008 23.5392 13.4682 24.4629 14.062C24.5621 14.1257 24.6592 14.1345 24.7682 14.0893C24.877 14.0442 24.9395 13.9693 24.9646 13.8539C25.1987 12.7798 26.1644 12.0001 27.2609 12C28.3575 12 29.3233 12.7796 29.5575 13.8537C29.5827 13.9693 29.6451 14.0442 29.7541 14.0894C29.8629 14.1345 29.9599 14.1257 30.0592 14.062C30.9829 13.4682 32.2161 13.6008 32.9917 14.3777C33.9081 15.2956 33.9081 16.7891 32.9918 17.7069L31.1592 19.5424C32.4034 19.572 33.4067 20.5942 33.4067 21.8474C33.4067 22.7799 32.8509 23.5844 32.054 23.9474C33.2361 25.2428 34.2544 26.4285 35.1307 27.5298C35.1958 26.8346 35.7811 26.2886 36.4917 26.2886H40.711C41.4651 26.2887 42.0786 26.9032 42.0785 27.6585V39.6516H44.0249C44.4088 39.6516 44.7474 39.8684 44.9084 40.2173C45.0695 40.5659 45.0154 40.9646 44.767 41.2577ZM22.3501 16.8856L25.0012 19.5409H29.5211L32.172 16.8856C32.6363 16.4205 32.6363 15.6639 32.172 15.1988C31.7791 14.8052 31.1539 14.7381 30.6855 15.0392C30.2688 15.3071 29.7675 15.3519 29.3104 15.1621C28.8531 14.9724 28.5304 14.5858 28.4248 14.1014C28.3061 13.5567 27.8166 13.1613 27.261 13.1613C26.7055 13.1614 26.2161 13.5568 26.0974 14.1014C25.9918 14.5858 25.669 14.9725 25.2117 15.1622C24.7544 15.3518 24.2532 15.307 23.8367 15.0393C23.3682 14.7381 22.743 14.8052 22.35 15.1988C21.8857 15.6639 21.8857 16.4206 22.3501 16.8856ZM22.2748 21.8472C22.2748 22.4786 22.7876 22.9923 23.4179 22.9923H31.1041C31.7344 22.9923 32.2472 22.4786 32.2472 21.8473C32.2472 21.2159 31.7344 20.7023 31.1041 20.7023H23.4179C22.7876 20.7022 22.2748 21.2159 22.2748 21.8472ZM34.9389 44.2109L32.4357 41.2578C32.1872 40.9645 32.1332 40.5657 32.2943 40.2169C32.4554 39.8681 32.794 39.6513 33.1779 39.6513H35.1242V29.4233C33.9731 27.872 32.5117 26.1443 30.6669 24.1536H23.8548C20.8147 27.4342 18.8003 30.0124 17.526 32.2536C15.7277 35.4161 15.6835 38.7569 17.4012 41.6603C19.3318 44.9234 23.1071 46.9064 27.2512 46.837C27.2577 46.8368 27.2642 46.8368 27.2707 46.837C30.1609 46.8865 32.861 45.9568 34.9389 44.2109ZM38.4601 46.9038C38.4599 46.904 38.4598 46.9042 38.4597 46.9043L38.4601 46.9038ZM43.6234 40.8127H41.4988C41.1787 40.8127 40.9191 40.5527 40.9191 40.2321V27.6583C40.9191 27.5452 40.8239 27.4497 40.711 27.4497H36.4917C36.3789 27.4497 36.2836 27.5452 36.2836 27.6583V40.232C36.2836 40.5526 36.024 40.8126 35.7039 40.8126H33.5793L38.6014 46.7372L43.6234 40.8127Z" fill="#1F1F25"/>
</svg>
